<?xml version="1.0" encoding="utf-8"?>
<!-- Generator: Adobe Illustrator 22.1.0, SVG Export Plug-In . SVG Version: 6.00 Build 0)  -->
<svg version="1.1" id="Layer_1" xmlns="http://www.w3.org/2000/svg" xmlns:xlink="http://www.w3.org/1999/xlink" x="0px" y="0px"
	 viewBox="0 0 512 512" style="enable-background:new 0 0 512 512;" xml:space="preserve">
<g>
	<path d="M345.3,325.5l25-25c3.9-3.9,10.7-1.2,10.7,4.5v113.6c0,20.7-16.8,37.5-37.5,37.5h-275C47.8,456,31,439.2,31,418.5v-275
		c0-20.7,16.8-37.5,37.5-37.5h213.7c5.5,0,8.4,6.7,4.5,10.7l-25,25c-1.2,1.2-2.7,1.8-4.5,1.8H68.5v275h275v-88.7
		C343.5,328.2,344.1,326.7,345.3,325.5z M467.7,167.8L262.5,373l-70.6,7.8c-20.5,2.3-37.9-15-35.6-35.6l7.8-70.6L369.2,69.4
		c17.9-17.9,46.8-17.9,64.6,0l33.8,33.8C485.5,121,485.5,150,467.7,167.8L467.7,167.8z M390.5,192l-45.4-45.4L199.9,291.8l-5.7,51
		l51-5.7L390.5,192z M441.1,129.7l-33.8-33.8c-3.2-3.2-8.4-3.2-11.6,0l-24.1,24.1l45.4,45.4l24.1-24.1
		C444.3,138.1,444.3,132.9,441.1,129.7z"/>
</g>
</svg>
